0
SECTION
2
HEADER
9
$INSUNITS
70
4
9
$ACADVER
1
AC1014
9
$HANDSEED
5
FFFF
0
ENDSEC
0
SECTION
2
TABLES
0
TABLE
2
VPORT
5
8
100
AcDbSymbolTable
0
ENDTAB
0
TABLE
2
LTYPE
5
5
100
AcDbSymbolTable
0
LTYPE
5
14
100
AcDbSymbolTableRecord
100
AcDbLinetypeTableRecord
2
BYBLOCK
70
0
0
LTYPE
5
15
100
AcDbSymbolTableRecord
100
AcDbLinetypeTableRecord
2
BYLAYER
70
0
0
ENDTAB
0
TABLE
2
LAYER
5
2
100
AcDbSymbolTable
70
2
0
LAYER
5
50
100
AcDbSymbolTableRecord
100
AcDbLayerTableRecord
2
0
70
0
6
CONTINUOUS
0
ENDTAB
0
TABLE
2
STYLE
5
3
100
AcDbSymbolTable
70
1
0
STYLE
5
11
100
AcDbSymbolTableRecord
100
AcDbTextStyleTableRecord
2
STANDARD
70
0
0
ENDTAB
0
TABLE
2
VIEW
5
6
100
AcDbSymbolTable
70
0
0
ENDTAB
0
TABLE
2
UCS
5
7
100
AcDbSymbolTable
70
0
0
ENDTAB
0
TABLE
2
APPID
5
9
100
AcDbSymbolTable
70
2
0
APPID
5
12
100
AcDbSymbolTableRecord
100
AcDbRegAppTableRecord
2
ACAD
70
0
0
ENDTAB
0
TABLE
2
DIMSTYLE
5
A
100
AcDbSymbolTable
70
1
0
ENDTAB
0
TABLE
2
BLOCK_RECORD
5
1
100
AcDbSymbolTable
70
1
0
BLOCK_RECORD
5
1F
100
AcDbSymbolTableRecord
100
AcDbBlockTableRecord
2
*MODEL_SPACE
0
BLOCK_RECORD
5
1B
100
AcDbSymbolTableRecord
100
AcDbBlockTableRecord
2
*PAPER_SPACE
0
ENDTAB
0
ENDSEC
0
SECTION
2
BLOCKS
0
BLOCK
5
20
100
AcDbEntity
100
AcDbBlockBegin
2
*MODEL_SPACE
0
ENDBLK
5
21
100
AcDbEntity
100
AcDbBlockEnd
0
BLOCK
5
1C
100
AcDbEntity
100
AcDbBlockBegin
2
*PAPER_SPACE
0
ENDBLK
5
1D
100
AcDbEntity
100
AcDbBlockEnd
0
ENDSEC
0
SECTION
2
ENTITIES
0
LINE
5
100
100
AcDbEntity
8
0
100
AcDbLine
10
-65.070984573788962
20
-37.786573811152145
30
0
11
35
21
-95
31
0
0
LINE
5
101
100
AcDbEntity
8
0
100
AcDbLine
10
35
20
-95
30
0
11
35
21
-76.000001132488251
31
0
0
LINE
5
102
100
AcDbEntity
8
0
100
AcDbLine
10
35
20
-76.000001132488251
30
0
11
13.082580757788884
21
-63.469189595007634
31
0
0
LINE
5
103
100
AcDbEntity
8
0
100
AcDbLine
10
13.082580757788884
20
-63.469189595007634
30
0
11
13.082580757788884
21
-18.000000268220901
31
0
0
LINE
5
104
100
AcDbEntity
8
0
100
AcDbLine
10
13.082580757788884
20
-18.000000268220901
30
0
11
1.4011112794040614
21
-11.32137214613982
31
0
0
LINE
5
105
100
AcDbEntity
8
0
100
AcDbLine
10
1.4011112794040614
20
-11.32137214613982
30
0
11
1.4011112794040614
21
-63.000000938773155
31
0
0
LINE
5
106
100
AcDbEntity
8
0
100
AcDbLine
10
1.4011112794040614
20
-63.000000938773155
30
0
11
-31.874378501200297
21
-43.975457645141759
31
0
0
LINE
5
107
100
AcDbEntity
8
0
100
AcDbLine
10
-31.874378501200297
20
-43.975457645141759
30
0
11
-31.874378501200297
21
7.7031711474915765
31
0
0
LINE
5
108
100
AcDbEntity
8
0
100
AcDbLine
10
-31.874378501200297
20
7.7031711474915765
30
0
11
-43.05196248519978
21
14.093713610543404
31
0
0
LINE
5
109
100
AcDbEntity
8
0
100
AcDbLine
10
-43.05196248519978
20
14.093713610543404
30
0
11
-43.05196248519978
21
-31.325410862442009
31
0
0
LINE
5
110
100
AcDbEntity
8
0
100
AcDbLine
10
-43.05196248519978
20
-31.325410862442009
30
0
11
-64.950236541022605
21
-18.805545172181379
31
0
0
LINE
5
111
100
AcDbEntity
8
0
100
AcDbLine
10
-64.950236541022605
20
-18.805545172181379
30
0
11
-65.070984573788962
21
-37.786573811152145
31
0
0
LINE
5
112
100
AcDbEntity
8
0
100
AcDbLine
10
-31.874378501200297
20
-43.975457645141759
30
0
11
12.699514411703694
21
33.987944430408064
31
0
0
LINE
5
113
100
AcDbEntity
8
0
100
AcDbLine
10
12.699514411703694
20
33.987944430408064
30
0
11
-31.874378501200297
21
7.7031711474915765
31
0
0
LINE
5
114
100
AcDbEntity
8
0
100
AcDbLine
10
12.699514411703694
20
33.987944430408064
30
0
11
47.496159152237212
21
14.093713610543404
31
0
0
LINE
5
115
100
AcDbEntity
8
0
100
AcDbLine
10
47.496159152237212
20
14.093713610543404
30
0
11
1.4011112794040614
21
-11.32137214613982
31
0
0
LINE
5
116
100
AcDbEntity
8
0
100
AcDbLine
10
13.082580757788884
20
-18.000000268220901
30
0
11
68.682374200132941
21
14.853492727531801
31
0
0
LINE
5
117
100
AcDbEntity
8
0
100
AcDbLine
10
68.682374200132941
20
14.853492727531801
30
0
11
12.078488570574466
21
47.215542988771773
31
0
0
LINE
5
118
100
AcDbEntity
8
0
100
AcDbLine
10
12.078488570574466
20
47.215542988771773
30
0
11
-43.05196248519978
21
14.093713610543404
31
0
0
ARC
5
119
100
AcDbEntity
8
0
100
AcDbCircle
10
-52.588762059095501
20
-15.954140763155991
30
0
40
25.148777538909421
210
0
220
0
230
1
100
AcDbArc
50
193.9103692042064
51
240.24216913012043
0
LINE
5
120
100
AcDbEntity
8
0
100
AcDbLine
10
-77.000001147389412
20
-22.000000327825546
30
0
11
-76.871222949054356
21
-1.7566670438568277
31
0
0
ARC
5
121
100
AcDbEntity
8
0
100
AcDbCircle
10
-52.860831636438576
20
2.339817591440958
30
0
40
24.357341344082823
210
0
220
0
230
1
100
AcDbArc
50
189.6821770459874
51
240.24216913012049
0
ARC
5
122
100
AcDbEntity
8
0
100
AcDbCircle
10
-49.688230283109654
20
-1.9295919654480556
30
0
40
27.183542692322334
210
0
220
-0
230
1
100
AcDbArc
50
53.302687120944135
51
179.63551715399674
0
ARC
5
123
100
AcDbEntity
8
0
100
AcDbCircle
10
61.960372001056363
20
-47.844093592367088
30
0
40
54.318884078750912
210
0
220
0
230
1
100
AcDbArc
50
240.24216913012043
51
320.45547215645439
0
LINE
5
124
100
AcDbEntity
8
0
100
AcDbLine
10
103.84729402971315
20
-82.427715879889334
30
0
11
103.84729402971315
21
-60.712981939136732
31
0
0
ARC
5
125
100
AcDbEntity
8
0
100
AcDbCircle
10
61.016709680027361
20
-30.494637680609404
30
0
40
52.417623805953099
210
0
220
0
230
1
100
AcDbArc
50
240.24216913012043
51
324.79581038968854
0
LINE
5
126
100
AcDbEntity
8
0
100
AcDbLine
10
68.682374200132941
20
14.853492727531801
30
0
11
68.682374200132941
21
-31.000000461935997
31
0
0
LINE
5
127
100
AcDbEntity
8
0
100
AcDbLine
10
68.682374200132941
20
-31.000000461935997
30
0
11
13.082580757788884
21
-63.469189595007634
31
0
0
LINE
5
128
100
AcDbEntity
8
0
100
AcDbLine
10
68.682374200132941
20
-31.000000461935997
30
0
11
95.752325475560625
21
-47.234595028471816
31
0
0
ARC
5
129
100
AcDbEntity
8
0
100
AcDbCircle
10
87.156744639772256
20
-61.56707210113094
30
0
40
16.712387888715106
210
0
220
-0
230
1
100
AcDbArc
50
2.9293891619424528
51
59.047724503545744
0
ENDSEC
0
SECTION
2
OBJECTS
0
DICTIONARY
5
C
100
AcDbDictionary
3
ACAD_GROUP
350
D
3
ACAD_MLINESTYLE
350
17
0
DICTIONARY
5
D
100
AcDbDictionary
0
DICTIONARY
5
1A
330
C
100
AcDbDictionary
0
DICTIONARY
5
17
100
AcDbDictionary
0
ENDSEC
0
EOF
