0
SECTION
2
HEADER
9
$INSUNITS
70
4
9
$ACADVER
1
AC1014
9
$HANDSEED
5
FFFF
0
ENDSEC
0
SECTION
2
TABLES
0
TABLE
2
VPORT
5
8
100
AcDbSymbolTable
0
ENDTAB
0
TABLE
2
LTYPE
5
5
100
AcDbSymbolTable
0
LTYPE
5
14
100
AcDbSymbolTableRecord
100
AcDbLinetypeTableRecord
2
BYBLOCK
70
0
0
LTYPE
5
15
100
AcDbSymbolTableRecord
100
AcDbLinetypeTableRecord
2
BYLAYER
70
0
0
ENDTAB
0
TABLE
2
LAYER
5
2
100
AcDbSymbolTable
70
2
0
LAYER
5
50
100
AcDbSymbolTableRecord
100
AcDbLayerTableRecord
2
0
70
0
6
CONTINUOUS
0
ENDTAB
0
TABLE
2
STYLE
5
3
100
AcDbSymbolTable
70
1
0
STYLE
5
11
100
AcDbSymbolTableRecord
100
AcDbTextStyleTableRecord
2
STANDARD
70
0
0
ENDTAB
0
TABLE
2
VIEW
5
6
100
AcDbSymbolTable
70
0
0
ENDTAB
0
TABLE
2
UCS
5
7
100
AcDbSymbolTable
70
0
0
ENDTAB
0
TABLE
2
APPID
5
9
100
AcDbSymbolTable
70
2
0
APPID
5
12
100
AcDbSymbolTableRecord
100
AcDbRegAppTableRecord
2
ACAD
70
0
0
ENDTAB
0
TABLE
2
DIMSTYLE
5
A
100
AcDbSymbolTable
70
1
0
ENDTAB
0
TABLE
2
BLOCK_RECORD
5
1
100
AcDbSymbolTable
70
1
0
BLOCK_RECORD
5
1F
100
AcDbSymbolTableRecord
100
AcDbBlockTableRecord
2
*MODEL_SPACE
0
BLOCK_RECORD
5
1B
100
AcDbSymbolTableRecord
100
AcDbBlockTableRecord
2
*PAPER_SPACE
0
ENDTAB
0
ENDSEC
0
SECTION
2
BLOCKS
0
BLOCK
5
20
100
AcDbEntity
100
AcDbBlockBegin
2
*MODEL_SPACE
0
ENDBLK
5
21
100
AcDbEntity
100
AcDbBlockEnd
0
BLOCK
5
1C
100
AcDbEntity
100
AcDbBlockBegin
2
*PAPER_SPACE
0
ENDBLK
5
1D
100
AcDbEntity
100
AcDbBlockEnd
0
ENDSEC
0
SECTION
2
ENTITIES
0
LINE
5
100
100
AcDbEntity
8
0
100
AcDbLine
10
-87.772443686066197
20
-36.567126751637986
30
0
11
-40
21
-65
31
0
0
LINE
5
101
100
AcDbEntity
8
0
100
AcDbLine
10
-40
20
-65
30
0
11
-39.59603145602523
21
-64.321258729309449
31
0
0
LINE
5
102
100
AcDbEntity
8
0
100
AcDbLine
10
-39.59603145602523
20
-64.321258729309449
30
0
11
-40
21
-65
31
0
0
ARC
5
103
100
AcDbEntity
8
0
100
AcDbCircle
10
-28.559562665579364
20
-45.777966281193045
30
0
40
22.368955869457949
210
0
220
0
230
1
100
AcDbArc
50
239.24003038960976
51
276.57044687698198
0
LINE
5
104
100
AcDbEntity
8
0
100
AcDbLine
10
-26.000000387430191
20
-68.000001013278961
30
0
11
27.000000402331352
21
-70.000001043081284
31
0
0
ARC
5
105
100
AcDbEntity
8
0
100
AcDbCircle
10
28.259535948222066
20
-36.622309076977373
30
0
40
33.401448333500142
210
0
220
0
230
1
100
AcDbArc
50
267.83892051177361
51
320.28226572173571
0
LINE
5
106
100
AcDbEntity
8
0
100
AcDbLine
10
53.95199032241549
20
-57.966032721305901
30
0
11
54.373367030353407
21
-46.799549960951062
31
0
0
LINE
5
107
100
AcDbEntity
8
0
100
AcDbLine
10
54.373367030353407
20
-46.799549960951062
30
0
11
54.162678676384445
21
-52.382791341128566
31
0
0
LINE
5
108
100
AcDbEntity
8
0
100
AcDbLine
10
54.373367030353407
20
-46.799549960951062
30
0
11
50.00000074505806
21
-11.000000163912773
31
0
0
LINE
5
109
100
AcDbEntity
8
0
100
AcDbLine
10
50.00000074505806
20
-11.000000163912773
30
0
11
49.797311349841877
21
-9.34082308520086
31
0
0
LINE
5
110
100
AcDbEntity
8
0
100
AcDbLine
10
49.797311349841877
20
-9.34082308520086
30
0
11
7.0000001043081284
21
15.000000223517418
31
0
0
LINE
5
111
100
AcDbEntity
8
0
100
AcDbLine
10
7.0000001043081284
20
15.000000223517418
30
0
11
-4.0000000596046448
21
8.0000001192092896
31
0
0
LINE
5
112
100
AcDbEntity
8
0
100
AcDbLine
10
-4.0000000596046448
20
8.0000001192092896
30
0
11
33.000000491738319
21
-42.00000062584877
31
0
0
LINE
5
113
100
AcDbEntity
8
0
100
AcDbLine
10
33.000000491738319
20
-42.00000062584877
30
0
11
24.143005031671638
21
-47.636270464073021
31
0
0
LINE
5
114
100
AcDbEntity
8
0
100
AcDbLine
10
24.143005031671638
20
-47.636270464073021
30
0
11
-31.924979619650955
21
28.131276362038584
31
0
0
LINE
5
115
100
AcDbEntity
8
0
100
AcDbLine
10
-31.924979619650955
20
28.131276362038584
30
0
11
-22.649955789688949
21
33.202642997701588
31
0
0
LINE
5
116
100
AcDbEntity
8
0
100
AcDbLine
10
-22.649955789688949
20
33.202642997701588
30
0
11
-4.0000000596046448
21
8.0000001192092896
31
0
0
LINE
5
117
100
AcDbEntity
8
0
100
AcDbLine
10
52.186683887705733
20
-30.903319941526366
30
0
11
33.000000491738319
21
-42.00000062584877
31
0
0
LINE
5
118
100
AcDbEntity
8
0
100
AcDbLine
10
-4.0000000596046448
20
8.0000001192092896
30
0
11
7.0000001043081284
21
15.000000223517418
31
0
0
LINE
5
119
100
AcDbEntity
8
0
100
AcDbLine
10
33.000000491738319
20
-42.00000062584877
30
0
11
24.143005031671638
21
-47.636270464073021
31
0
0
LINE
5
120
100
AcDbEntity
8
0
100
AcDbLine
10
-31.924979619650955
20
28.131276362038584
30
0
11
-36.000000536441803
21
30.000000447034836
31
0
0
LINE
5
121
100
AcDbEntity
8
0
100
AcDbLine
10
-36.000000536441803
20
30.000000447034836
30
0
11
-36.000000536441803
21
-13.642189665203013
31
0
0
LINE
5
122
100
AcDbEntity
8
0
100
AcDbLine
10
-36.000000536441803
20
-13.642189665203013
30
0
11
24.143005031671638
21
-47.636270464073021
31
0
0
LINE
5
123
100
AcDbEntity
8
0
100
AcDbLine
10
-22.649955789688949
20
33.202642997701588
30
0
11
-26.461940150975927
21
35.357256043018396
31
0
0
LINE
5
124
100
AcDbEntity
8
0
100
AcDbLine
10
-26.461940150975927
20
35.357256043018396
30
0
11
-13.324977924646797
21
42.895867385479875
31
0
0
LINE
5
125
100
AcDbEntity
8
0
100
AcDbLine
10
-13.324977924646797
20
42.895867385479875
30
0
11
-15.740728989610151
21
44.261300258622811
31
0
0
LINE
5
126
100
AcDbEntity
8
0
100
AcDbLine
10
-15.740728989610151
20
44.261300258622811
30
0
11
7.0000001043081284
21
58.000000864267349
31
0
0
LINE
5
127
100
AcDbEntity
8
0
100
AcDbLine
10
7.0000001043081284
20
58.000000864267349
30
0
11
7.0000001043081284
21
15.000000223517418
31
0
0
LINE
5
128
100
AcDbEntity
8
0
100
AcDbLine
10
-87.772443686066197
20
-36.567126751637986
30
0
11
-87.772443686066197
21
17.00000025331974
31
0
0
LINE
5
129
100
AcDbEntity
8
0
100
AcDbLine
10
-87.772443686066197
20
17.00000025331974
30
0
11
-75.967613860421196
21
9.9740831292822776
31
0
0
LINE
5
130
100
AcDbEntity
8
0
100
AcDbLine
10
-75.967613860421196
20
9.9740831292822776
30
0
11
-75.967613860421196
21
-32.899140987251087
31
0
0
LINE
5
131
100
AcDbEntity
8
0
100
AcDbLine
10
-75.967613860421196
20
-32.899140987251087
30
0
11
-37.000000551342964
21
-55.000000819563866
31
0
0
ARC
5
132
100
AcDbEntity
8
0
100
AcDbCircle
10
-25.617428617523203
20
-34.930570718416561
30
0
40
23.072602116220416
210
0
220
0
230
1
100
AcDbArc
50
240.43983975528039
51
269.04992283860406
0
LINE
5
133
100
AcDbEntity
8
0
100
AcDbLine
10
-26.000000387430191
20
-58.000000864267349
30
0
11
27.000000402331352
21
-60.000000894069672
31
0
0
ARC
5
134
100
AcDbEntity
8
0
100
AcDbCircle
10
28.224270098608347
20
-27.556853942729362
30
0
40
32.466238162058197
210
0
220
0
230
1
100
AcDbArc
50
267.83892051177361
51
323.65125155354758
0
LINE
5
135
100
AcDbEntity
8
0
100
AcDbLine
10
24.143005031671638
20
-47.636270464073021
30
0
11
40.552675001906813
21
-57.591285066621332
31
0
0
LINE
5
136
100
AcDbEntity
8
0
100
AcDbLine
10
24.143005031671638
20
-47.636270464073021
30
0
11
3.0000000447034836
21
-59.00000087916851
31
0
0
LINE
5
137
100
AcDbEntity
8
0
100
AcDbLine
10
3.0000000447034836
20
-59.00000087916851
30
0
11
-58.045504273564902
21
-21.966417144054663
31
0
0
LINE
5
138
100
AcDbEntity
8
0
100
AcDbLine
10
-58.045504273564902
20
-21.966417144054663
30
0
11
-75.967613860421196
21
-32.899140987251087
31
0
0
LINE
5
139
100
AcDbEntity
8
0
100
AcDbLine
10
-55.014249597385039
20
-20.117311707416977
30
0
11
-58.045504273564902
21
-21.966417144054663
31
0
0
ARC
5
140
100
AcDbEntity
8
0
100
AcDbCircle
10
-52.007125163770965
20
-25.046917029340786
30
0
40
5.7744095792711381
210
0
220
-0
230
1
100
AcDbArc
50
58.616256758440919
51
121.38374324155916
0
ARC
5
141
100
AcDbEntity
8
0
100
AcDbCircle
10
52.491586529495976
20
146.25873282639196
30
0
40
194.88850781716124
210
0
220
0
230
1
100
AcDbArc
50
238.6162567584409
51
238.89710384263788
0
LINE
5
142
100
AcDbEntity
8
0
100
AcDbLine
10
-48.183258235148159
20
-20.6127929376356
30
0
11
-36.000000536441803
21
-13.642189665203013
31
0
0
LINE
5
143
100
AcDbEntity
8
0
100
AcDbLine
10
-55.014249597385039
20
-20.117311707416977
30
0
11
-55.014249597385039
21
22.472846963414629
31
0
0
LINE
5
144
100
AcDbEntity
8
0
100
AcDbLine
10
-49.000000730156898
20
-20.117311707416977
30
0
11
-49.000000730156898
21
22.000000327825546
31
0
0
LINE
5
145
100
AcDbEntity
8
0
100
AcDbLine
10
-49.000000730156898
20
22.000000327825546
30
0
11
-36.000000536441803
21
30.000000447034836
31
0
0
LINE
5
146
100
AcDbEntity
8
0
100
AcDbLine
10
-75.967613860421196
20
9.9740831292822776
30
0
11
-55.014249597385039
21
22.472846963414629
31
0
0
ARC
5
147
100
AcDbEntity
8
0
100
AcDbCircle
10
-52.34089387070982
20
17.991140045108963
30
0
40
5.2184794473999876
210
0
220
-0
230
1
100
AcDbArc
50
50.19294240656243
51
120.81624193254802
0
LINE
5
148
100
AcDbEntity
8
0
100
AcDbLine
10
-87.772443686066197
20
17.00000025331974
30
0
11
-69.326828011110564
21
28.00288223457509
31
0
0
ARC
5
149
100
AcDbEntity
8
0
100
AcDbCircle
10
-71.302066147146149
20
31.314240439261685
30
0
40
3.8557306510951435
210
0
220
0
230
1
100
AcDbArc
50
-59.183758067451969
51
59.183758067451926
0
ARC
5
150
100
AcDbEntity
8
0
100
AcDbCircle
10
-63.232298406152331
20
44.842680950585219
30
0
40
11.896724842001943
210
0
220
0
230
1
100
AcDbArc
50
120.81624193254814
51
239.18375806745186
0
ARC
5
151
100
AcDbEntity
8
0
100
AcDbCircle
10
-51.590044000689431
20
25.325199010937443
30
0
40
34.62279332966601
210
0
220
-0
230
1
100
AcDbArc
50
59.183758067451862
51
120.81624193254814
0
ARC
5
152
100
AcDbEntity
8
0
100
AcDbCircle
10
-26.926629995134146
20
66.671807722529323
30
0
40
13.521012526943482
210
0
220
0
230
1
100
AcDbArc
50
239.18375806745192
51
300.81624193254811
0
LINE
5
153
100
AcDbEntity
8
0
100
AcDbLine
10
-20
20
55.059763257222166
30
0
11
-4.7305494425800765
21
64.168050308329754
31
0
0
LINE
5
154
100
AcDbEntity
8
0
100
AcDbLine
10
-4.7305494425800765
20
64.168050308329754
30
0
11
7.0000001043081284
21
58.000000864267349
31
0
0
LINE
5
155
100
AcDbEntity
8
0
100
AcDbLine
10
-74.937494938102304
20
42.716549224954775
30
0
11
-74.937494938102304
21
24.656097441826709
31
0
0
ENDSEC
0
SECTION
2
OBJECTS
0
DICTIONARY
5
C
100
AcDbDictionary
3
ACAD_GROUP
350
D
3
ACAD_MLINESTYLE
350
17
0
DICTIONARY
5
D
100
AcDbDictionary
0
DICTIONARY
5
1A
330
C
100
AcDbDictionary
0
DICTIONARY
5
17
100
AcDbDictionary
0
ENDSEC
0
EOF
