0
SECTION
2
HEADER
9
$INSUNITS
70
4
9
$ACADVER
1
AC1014
9
$HANDSEED
5
FFFF
0
ENDSEC
0
SECTION
2
TABLES
0
TABLE
2
VPORT
5
8
100
AcDbSymbolTable
0
ENDTAB
0
TABLE
2
LTYPE
5
5
100
AcDbSymbolTable
0
LTYPE
5
14
100
AcDbSymbolTableRecord
100
AcDbLinetypeTableRecord
2
BYBLOCK
70
0
0
LTYPE
5
15
100
AcDbSymbolTableRecord
100
AcDbLinetypeTableRecord
2
BYLAYER
70
0
0
ENDTAB
0
TABLE
2
LAYER
5
2
100
AcDbSymbolTable
70
2
0
LAYER
5
50
100
AcDbSymbolTableRecord
100
AcDbLayerTableRecord
2
0
70
0
6
CONTINUOUS
0
ENDTAB
0
TABLE
2
STYLE
5
3
100
AcDbSymbolTable
70
1
0
STYLE
5
11
100
AcDbSymbolTableRecord
100
AcDbTextStyleTableRecord
2
STANDARD
70
0
0
ENDTAB
0
TABLE
2
VIEW
5
6
100
AcDbSymbolTable
70
0
0
ENDTAB
0
TABLE
2
UCS
5
7
100
AcDbSymbolTable
70
0
0
ENDTAB
0
TABLE
2
APPID
5
9
100
AcDbSymbolTable
70
2
0
APPID
5
12
100
AcDbSymbolTableRecord
100
AcDbRegAppTableRecord
2
ACAD
70
0
0
ENDTAB
0
TABLE
2
DIMSTYLE
5
A
100
AcDbSymbolTable
70
1
0
ENDTAB
0
TABLE
2
BLOCK_RECORD
5
1
100
AcDbSymbolTable
70
1
0
BLOCK_RECORD
5
1F
100
AcDbSymbolTableRecord
100
AcDbBlockTableRecord
2
*MODEL_SPACE
0
BLOCK_RECORD
5
1B
100
AcDbSymbolTableRecord
100
AcDbBlockTableRecord
2
*PAPER_SPACE
0
ENDTAB
0
ENDSEC
0
SECTION
2
BLOCKS
0
BLOCK
5
20
100
AcDbEntity
100
AcDbBlockBegin
2
*MODEL_SPACE
0
ENDBLK
5
21
100
AcDbEntity
100
AcDbBlockEnd
0
BLOCK
5
1C
100
AcDbEntity
100
AcDbBlockBegin
2
*PAPER_SPACE
0
ENDBLK
5
1D
100
AcDbEntity
100
AcDbBlockEnd
0
ENDSEC
0
SECTION
2
ENTITIES
0
LINE
5
100
100
AcDbEntity
8
0
100
AcDbLine
10
-26.448082676805615
20
20.61613408729184
30
0
11
8.1450419364870186
21
0.27746283224038049
31
0
0
LINE
5
101
100
AcDbEntity
8
0
100
AcDbLine
10
8.1450419364870186
20
0.27746283224038049
30
0
11
8.1450419364870186
21
-20
31
0
0
LINE
5
102
100
AcDbEntity
8
0
100
AcDbLine
10
8.1450419364870186
20
-20
30
0
11
-26.343976043135488
21
0.27746283224038049
31
0
0
LINE
5
103
100
AcDbEntity
8
0
100
AcDbLine
10
-26.343976043135488
20
0.27746283224038049
30
0
11
-26.448082676805615
21
20.61613408729184
31
0
0
ARC
5
104
100
AcDbEntity
8
0
100
AcDbCircle
10
6.9719690283167202
20
20.787199789493883
30
0
40
33.420489515378442
210
0
220
0
230
1
100
AcDbArc
50
98.751633547360484
51
180.293274745443
0
LINE
5
105
100
AcDbEntity
8
0
100
AcDbLine
10
1.8869892426250345
20
53.818580324170711
30
0
11
38.250341869061785
21
32.439121744808389
31
0
0
ARC
5
106
100
AcDbEntity
8
0
100
AcDbCircle
10
40.376931211550499
20
0.27746283224038049
30
0
40
32.231889275063473
210
0
220
0
230
1
100
AcDbArc
50
93.782997836366889
51
180
0
LINE
5
107
100
AcDbEntity
8
0
100
AcDbLine
10
-26.343976043135488
20
0.27746283224038049
30
0
11
-44.647868338078709
21
-9.8612685838798093
31
0
0
LINE
5
108
100
AcDbEntity
8
0
100
AcDbLine
10
-45.124266803992313
20
-9.8612685838798093
30
0
11
-44.647868338078709
21
-9.8612685838798093
31
0
0
LINE
5
109
100
AcDbEntity
8
0
100
AcDbLine
10
8.1450419364870186
20
-20
30
0
11
8.1450419364870186
21
-22.03216987983016
31
0
0
LINE
5
110
100
AcDbEntity
8
0
100
AcDbLine
10
8.1450419364870186
20
-22.03216987983016
30
0
11
8.1450419364870186
21
-30.000000447034836
31
0
0
LINE
5
111
100
AcDbEntity
8
0
100
AcDbLine
10
8.1450419364870186
20
-30.000000447034836
30
0
11
-9.0994670533242346
21
-40.004929102840279
31
0
0
ARC
5
112
100
AcDbEntity
8
0
100
AcDbCircle
10
-26.356055416397574
20
-10.261449324219738
30
0
40
34.386980548948571
210
0
220
0
230
1
100
AcDbArc
50
219.21069069770596
51
300.12147317023141
0
LINE
5
113
100
AcDbEntity
8
0
100
AcDbLine
10
-53.000000789761543
20
-32.000000476837158
30
0
11
-53.000000789761543
21
-19.000000283122063
31
0
0
ARC
5
114
100
AcDbEntity
8
0
100
AcDbCircle
10
-43.759998324701115
20
-19.000000283122063
30
0
40
9.2400024650604244
210
0
220
0
230
1
100
AcDbArc
50
98.49065295852435
51
180
0
LINE
5
115
100
AcDbEntity
8
0
100
AcDbLine
10
8.1450419364870186
20
-20
30
0
11
-10.000000149011612
21
-31.000000461935997
31
0
0
ARC
5
116
100
AcDbEntity
8
0
100
AcDbCircle
10
-25.470463840312139
20
-5.480709282613514
30
0
40
29.842410578217272
210
0
220
0
230
1
100
AcDbArc
50
202.70608628788648
51
301.22534257785378
0
LINE
5
117
100
AcDbEntity
8
0
100
AcDbLine
10
8.1450419364870186
20
-30.000000447034836
30
0
11
61.29577828744889
21
0.83702283435225233
31
0
0
LINE
5
118
100
AcDbEntity
8
0
100
AcDbLine
10
61.29577828744889
20
0.83702283435225233
30
0
11
61.29577828744889
21
10
31
0
0
LINE
5
119
100
AcDbEntity
8
0
100
AcDbLine
10
61.29577828744889
20
10
30
0
11
43.287101097175082
21
0.83702283435225233
31
0
0
LINE
5
120
100
AcDbEntity
8
0
100
AcDbLine
10
43.287101097175082
20
0.83702283435225233
30
0
11
43.287101097175082
21
22.97011411121224
31
0
0
ARC
5
121
100
AcDbEntity
8
0
100
AcDbCircle
10
31.867948038892429
20
22.97011411121224
30
0
40
11.419153058282649
210
0
220
0
230
1
100
AcDbArc
50
0
51
56.018853734785601
0
ARC
5
122
100
AcDbEntity
8
0
100
AcDbCircle
10
55.658097508347154
20
21.08015128895908
30
0
40
12.431942613818435
210
0
220
0
230
1
100
AcDbArc
50
-63.03259802829767
51
23.751138712953406
0
ARC
5
123
100
AcDbEntity
8
0
100
AcDbCircle
10
60.787092126691206
20
23.337084605695292
30
0
40
6.8283425396521675
210
0
220
-0
230
1
100
AcDbArc
50
23.751138712953406
51
36.491807627509488
0
LINE
5
124
100
AcDbEntity
8
0
100
AcDbLine
10
53.232412207784058
20
33.806050097398156
30
0
11
53.558832179464801
21
33.812786947202994
31
0
0
ARC
5
125
100
AcDbEntity
8
0
100
AcDbCircle
10
46.083799072337456
20
12.460473177242072
30
0
40
25.117342042297643
210
0
220
-0
230
1
100
AcDbArc
50
36.491807627509495
51
116.18562543579546
0
LINE
5
126
100
AcDbEntity
8
0
100
AcDbLine
10
35
20
35
30
0
11
34.398092256277828
21
34.704012220666293
31
0
0
LINE
5
127
100
AcDbEntity
8
0
100
AcDbLine
10
67.883449125095765
20
18.823167682430928
30
0
11
67.883449125095765
21
7.6294049262322172
31
0
0
ARC
5
128
100
AcDbEntity
8
0
100
AcDbCircle
10
61.087886341690485
20
7.6294049262322172
30
0
40
6.795562783405277
210
0
220
0
230
1
100
AcDbArc
50
-88.246916378058529
51
0
0
ENDSEC
0
SECTION
2
OBJECTS
0
DICTIONARY
5
C
100
AcDbDictionary
3
ACAD_GROUP
350
D
3
ACAD_MLINESTYLE
350
17
0
DICTIONARY
5
D
100
AcDbDictionary
0
DICTIONARY
5
1A
330
C
100
AcDbDictionary
0
DICTIONARY
5
17
100
AcDbDictionary
0
ENDSEC
0
EOF
